<svg width="300" height="450" viewBox="0 0 300 450" fill="none" xmlns="http://www.w3.org/2000/svg">
<rect width="300" height="450" fill="#F3EAD8"/>
<path d="M202 213.05L188.35 199.4C185.92 197.018 182.653 195.684 179.25 195.684C175.847 195.684 172.58 197.018 170.15 199.4L135.05 234.5" stroke="#913608" stroke-width="8" stroke-linecap="round" stroke-linejoin="round"/>
<path d="M98 250.75V153.25C98 148.94 99.712 144.807 102.76 141.76C105.807 138.712 109.94 137 114.25 137H195.5C197.224 137 198.877 137.685 200.096 138.904C201.315 140.123 202 141.776 202 143.5V260.5C202 262.224 201.315 263.877 200.096 265.096C198.877 266.315 197.224 267 195.5 267H114.25C109.94 267 105.807 265.288 102.76 262.24C99.712 259.193 98 255.06 98 250.75ZM98 250.75C98 246.44 99.712 242.307 102.76 239.26C105.807 236.212 109.94 234.5 114.25 234.5H202" stroke="#913608" stroke-width="8" stroke-linecap="round" stroke-linejoin="round"/>
<path d="M137 189C144.18 189 150 183.18 150 176C150 168.82 144.18 163 137 163C129.82 163 124 168.82 124 176C124 183.18 129.82 189 137 189Z" stroke="#913608" stroke-width="8" stroke-linecap="round" stroke-linejoin="round"/>
<path d="M45.256 315.544C43.1653 315.544 41.288 315.107 39.624 314.232C37.9813 313.336 36.68 312.056 35.72 310.392C34.7813 308.707 34.312 306.701 34.312 304.376C34.312 302.051 34.8027 300.056 35.784 298.392C36.7867 296.728 38.12 295.459 39.784 294.584C41.4693 293.688 43.3253 293.24 45.352 293.24C46.3973 293.24 47.4427 293.357 48.488 293.592C49.5333 293.827 50.568 294.232 51.592 294.808L51.72 299.608H49.512L48.744 295.64C48.2747 295.384 47.8053 295.203 47.336 295.096C46.8667 294.989 46.3973 294.936 45.928 294.936C44.648 294.936 43.464 295.288 42.376 295.992C41.3093 296.675 40.4453 297.72 39.784 299.128C39.144 300.515 38.824 302.275 38.824 304.408C38.824 306.52 39.1227 308.28 39.72 309.688C40.3387 311.075 41.1707 312.109 42.216 312.792C43.2613 313.475 44.4347 313.816 45.736 313.816C46.824 313.816 47.9227 313.571 49.032 313.08L49.8 309.176H51.976L51.848 313.944C50.9307 314.456 49.9173 314.851 48.808 315.128C47.6987 315.405 46.5147 315.544 45.256 315.544ZM61.9585 315.448C60.5078 315.448 59.1958 315.128 58.0225 314.488C56.8705 313.848 55.9532 312.92 55.2705 311.704C54.5878 310.488 54.2465 309.037 54.2465 307.352C54.2465 305.645 54.5985 304.184 55.3025 302.968C56.0278 301.752 56.9772 300.824 58.1505 300.184C59.3238 299.544 60.5932 299.224 61.9585 299.224C63.3238 299.224 64.5932 299.544 65.7665 300.184C66.9398 300.824 67.8892 301.752 68.6145 302.968C69.3398 304.163 69.7025 305.624 69.7025 307.352C69.7025 309.059 69.3505 310.52 68.6465 311.736C67.9638 312.931 67.0358 313.848 65.8625 314.488C64.7105 315.128 63.4092 315.448 61.9585 315.448ZM61.9585 313.88C63.1105 313.88 63.9852 313.347 64.5825 312.28C65.2012 311.213 65.5105 309.581 65.5105 307.384C65.5105 302.989 64.3265 300.792 61.9585 300.792C59.6118 300.792 58.4385 302.989 58.4385 307.384C58.4385 309.581 58.7372 311.213 59.3345 312.28C59.9318 313.347 60.8065 313.88 61.9585 313.88ZM80.926 301.016V299.672H87.006V301.016L85.214 301.4L79.966 315.128H78.078L72.286 301.304L70.622 301.016V299.672H79.038V301.016L76.574 301.4L80.094 310.68L83.262 301.432L80.926 301.016ZM95.2048 300.76C94.6928 300.76 94.1808 300.931 93.6688 301.272C93.1781 301.592 92.7514 302.125 92.3888 302.872C92.0474 303.619 91.8341 304.632 91.7488 305.912H96.1328C96.9008 305.912 97.4128 305.752 97.6688 305.432C97.9248 305.112 98.0528 304.664 98.0528 304.088C98.0528 303.107 97.7754 302.307 97.2208 301.688C96.6661 301.069 95.9941 300.76 95.2048 300.76ZM95.2048 315.448C93.7114 315.448 92.3994 315.128 91.2688 314.488C90.1381 313.848 89.2528 312.931 88.6128 311.736C87.9728 310.52 87.6528 309.08 87.6528 307.416C87.6528 305.709 88.0154 304.248 88.7408 303.032C89.4874 301.795 90.4474 300.856 91.6208 300.216C92.8154 299.555 94.0848 299.224 95.4288 299.224C96.6874 299.224 97.7861 299.491 98.7248 300.024C99.6634 300.557 100.389 301.304 100.901 302.264C101.434 303.224 101.701 304.355 101.701 305.656C101.701 306.339 101.637 306.925 101.509 307.416H91.7168C91.8021 309.251 92.2821 310.627 93.1568 311.544C94.0528 312.461 95.1728 312.92 96.5168 312.92C97.4554 312.92 98.2448 312.739 98.8848 312.376C99.5461 311.992 100.143 311.501 100.677 310.904L101.605 311.736C100.986 312.909 100.133 313.827 99.0448 314.488C97.9781 315.128 96.6981 315.448 95.2048 315.448ZM104.058 315V313.688L106.106 313.304C106.127 312.493 106.138 311.629 106.138 310.712C106.138 309.773 106.138 308.963 106.138 308.28V306.584C106.138 305.709 106.127 305.016 106.106 304.504C106.106 303.971 106.084 303.384 106.042 302.744L103.802 302.456V301.24L109.146 299.224L109.658 299.544L109.978 303.32C110.468 301.997 111.13 300.984 111.962 300.28C112.794 299.576 113.626 299.224 114.458 299.224C115.034 299.224 115.556 299.373 116.026 299.672C116.516 299.971 116.836 300.397 116.986 300.952C116.964 301.741 116.772 302.36 116.41 302.808C116.047 303.235 115.546 303.448 114.906 303.448C114.138 303.448 113.412 303.064 112.73 302.296L112.442 301.976C111.311 302.915 110.5 304.237 110.01 305.944V308.28C110.01 308.941 110.01 309.731 110.01 310.648C110.01 311.544 110.02 312.387 110.042 313.176L112.666 313.688V315H104.058ZM125.369 315V313.688L127.449 313.272C127.471 312.483 127.481 311.629 127.481 310.712C127.481 309.773 127.481 308.963 127.481 308.28V306.584C127.481 305.709 127.471 305.016 127.449 304.504C127.449 303.971 127.428 303.384 127.385 302.744L125.145 302.456V301.24L130.489 299.224L131.001 299.544L131.225 302.008C132.868 300.152 134.681 299.224 136.665 299.224C138.052 299.224 139.119 299.683 139.865 300.6C140.633 301.517 141.017 302.968 141.017 304.952V308.28C141.017 309.005 141.017 309.827 141.017 310.744C141.017 311.661 141.028 312.515 141.049 313.304L143.001 313.688V315H135.097V313.688L137.145 313.272C137.167 312.483 137.177 311.64 137.177 310.744C137.177 309.827 137.177 309.005 137.177 308.28V305.24C137.177 303.981 137.007 303.117 136.665 302.648C136.324 302.157 135.748 301.912 134.937 301.912C133.807 301.912 132.612 302.435 131.353 303.48V308.28C131.353 308.984 131.353 309.795 131.353 310.712C131.353 311.629 131.364 312.493 131.385 313.304L133.273 313.688V315H125.369ZM152.74 315.448C151.289 315.448 149.977 315.128 148.804 314.488C147.652 313.848 146.734 312.92 146.052 311.704C145.369 310.488 145.028 309.037 145.028 307.352C145.028 305.645 145.38 304.184 146.084 302.968C146.809 301.752 147.758 300.824 148.932 300.184C150.105 299.544 151.374 299.224 152.74 299.224C154.105 299.224 155.374 299.544 156.548 300.184C157.721 300.824 158.67 301.752 159.396 302.968C160.121 304.163 160.484 305.624 160.484 307.352C160.484 309.059 160.132 310.52 159.428 311.736C158.745 312.931 157.817 313.848 156.644 314.488C155.492 315.128 154.19 315.448 152.74 315.448ZM152.74 313.88C153.892 313.88 154.766 313.347 155.364 312.28C155.982 311.213 156.292 309.581 156.292 307.384C156.292 302.989 155.108 300.792 152.74 300.792C150.393 300.792 149.22 302.989 149.22 307.384C149.22 309.581 149.518 311.213 150.116 312.28C150.713 313.347 151.588 313.88 152.74 313.88ZM168.221 315.448C166.941 315.448 165.938 315.128 165.213 314.488C164.487 313.848 164.125 312.824 164.125 311.416C164.125 310.925 164.125 310.467 164.125 310.04C164.146 309.592 164.157 309.059 164.157 308.44V301.624H161.789V299.96L164.381 299.64L165.597 295.256H168.189L168.061 299.672H171.901V301.624H168.029V311.064C168.029 311.853 168.178 312.429 168.477 312.792C168.797 313.155 169.213 313.336 169.725 313.336C170.301 313.336 170.951 313.069 171.677 312.536L172.445 313.336C172.039 313.997 171.485 314.52 170.781 314.904C170.077 315.267 169.223 315.448 168.221 315.448ZM180.587 315V313.688L182.731 313.272C182.753 312.44 182.763 311.608 182.763 310.776C182.785 309.944 182.795 309.112 182.795 308.28V301.624H180.427V299.96L182.891 299.64C183.062 298.061 183.318 296.792 183.659 295.832C184.022 294.851 184.577 293.987 185.323 293.24C186.049 292.515 186.838 292.003 187.691 291.704C188.566 291.384 189.409 291.224 190.219 291.224C191.051 291.224 191.787 291.373 192.427 291.672C193.089 291.971 193.505 292.493 193.675 293.24C193.654 293.731 193.451 294.147 193.067 294.488C192.705 294.829 192.203 295 191.563 295C190.646 295 189.782 294.467 188.971 293.4L188.395 292.824C188.331 292.867 188.257 292.931 188.171 293.016C187.595 293.592 187.179 294.403 186.923 295.448C186.667 296.493 186.561 297.901 186.603 299.672H190.539V301.624H186.667V308.28C186.667 309.091 186.667 309.912 186.667 310.744C186.689 311.555 186.71 312.376 186.731 313.208L189.419 313.688V315H180.587ZM199.49 315.448C198.039 315.448 196.727 315.128 195.554 314.488C194.402 313.848 193.484 312.92 192.802 311.704C192.119 310.488 191.778 309.037 191.778 307.352C191.778 305.645 192.13 304.184 192.834 302.968C193.559 301.752 194.508 300.824 195.682 300.184C196.855 299.544 198.124 299.224 199.49 299.224C200.855 299.224 202.124 299.544 203.298 300.184C204.471 300.824 205.42 301.752 206.146 302.968C206.871 304.163 207.234 305.624 207.234 307.352C207.234 309.059 206.882 310.52 206.178 311.736C205.495 312.931 204.567 313.848 203.394 314.488C202.242 315.128 200.94 315.448 199.49 315.448ZM199.49 313.88C200.642 313.88 201.516 313.347 202.114 312.28C202.732 311.213 203.042 309.581 203.042 307.384C203.042 302.989 201.858 300.792 199.49 300.792C197.143 300.792 195.97 302.989 195.97 307.384C195.97 309.581 196.268 311.213 196.866 312.28C197.463 313.347 198.338 313.88 199.49 313.88ZM220.923 315.288L220.667 312.472C219.109 314.456 217.296 315.448 215.227 315.448C213.904 315.448 212.837 315.021 212.027 314.168C211.237 313.293 210.853 311.8 210.875 309.688L211.003 301.784L208.923 301.336V300.088L214.523 299.416L214.907 299.768L214.747 304.248V309.56C214.747 310.755 214.928 311.597 215.291 312.088C215.675 312.557 216.219 312.792 216.923 312.792C217.52 312.792 218.128 312.621 218.747 312.28C219.387 311.939 219.995 311.501 220.571 310.968L220.667 301.784L218.651 301.336V300.152L224.123 299.416L224.539 299.768L224.443 304.248V313.272L226.395 313.688V315L220.923 315.288ZM228.338 315V313.688L230.418 313.272C230.439 312.483 230.45 311.629 230.45 310.712C230.45 309.773 230.45 308.963 230.45 308.28V306.584C230.45 305.709 230.439 305.016 230.418 304.504C230.418 303.971 230.397 303.384 230.354 302.744L228.114 302.456V301.24L233.458 299.224L233.97 299.544L234.194 302.008C235.837 300.152 237.65 299.224 239.634 299.224C241.021 299.224 242.087 299.683 242.834 300.6C243.602 301.517 243.986 302.968 243.986 304.952V308.28C243.986 309.005 243.986 309.827 243.986 310.744C243.986 311.661 243.997 312.515 244.018 313.304L245.97 313.688V315H238.066V313.688L240.114 313.272C240.135 312.483 240.146 311.64 240.146 310.744C240.146 309.827 240.146 309.005 240.146 308.28V305.24C240.146 303.981 239.975 303.117 239.634 302.648C239.293 302.157 238.717 301.912 237.906 301.912C236.775 301.912 235.581 302.435 234.322 303.48V308.28C234.322 308.984 234.322 309.795 234.322 310.712C234.322 311.629 234.333 312.493 234.354 313.304L236.242 313.688V315H228.338ZM252.093 307.416C252.093 309.357 252.455 310.808 253.181 311.768C253.927 312.707 254.866 313.176 255.997 313.176C256.551 313.176 257.053 313.069 257.501 312.856C257.97 312.621 258.407 312.291 258.813 311.864V302.68C257.874 301.869 256.946 301.464 256.029 301.464C254.962 301.464 254.034 301.944 253.245 302.904C252.477 303.864 252.093 305.368 252.093 307.416ZM259.197 315.352L258.941 313.336C258.343 314.019 257.682 314.541 256.957 314.904C256.231 315.267 255.399 315.448 254.461 315.448C253.202 315.448 252.082 315.128 251.101 314.488C250.141 313.848 249.383 312.931 248.829 311.736C248.274 310.541 247.997 309.123 247.997 307.48C247.997 305.795 248.306 304.333 248.924 303.096C249.565 301.859 250.407 300.909 251.453 300.248C252.519 299.565 253.682 299.224 254.941 299.224C255.751 299.224 256.477 299.373 257.117 299.672C257.778 299.971 258.397 300.461 258.973 301.144V294.552L256.477 294.232V292.984L262.333 291.544L262.812 291.832L262.685 296.344V313.336L264.765 313.688V315L259.197 315.352Z" fill="#913608"/>
</svg>
